<svg width="20" height="20" viewBox="0 0 20 20" fill="none" xmlns="http://www.w3.org/2000/svg">
<path d="M9.85238 0.340088C4.4417 0.340088 0.0578613 4.72393 0.0578613 10.1346C0.0578613 15.5453 4.4417 19.9291 9.85238 19.9291C15.2631 19.9291 19.6469 15.5453 19.6469 10.1346C19.6469 4.72393 15.2631 0.340088 9.85238 0.340088ZM14.6628 7.05012L13.0553 14.6251C12.9369 15.1622 12.617 15.2925 12.1707 15.0398L9.72205 13.2349L8.54118 14.3723C8.41085 14.5026 8.30027 14.6132 8.0475 14.6132L8.22128 12.1212L12.7591 8.02168C12.9566 7.8479 12.7157 7.74917 12.455 7.92294L6.84689 11.4537L4.42985 10.6994C3.90458 10.5335 3.89273 10.1741 4.54043 9.92134L13.9835 6.27999C14.4218 6.12201 14.8049 6.38662 14.6628 7.05012Z" fill="#E5E5E5"/>
</svg>
