<svg width="27" height="18" viewBox="0 0 27 18" fill="none" xmlns="http://www.w3.org/2000/svg">
<path d="M25.729 1.72228C25.907 1.05533 25.729 0.564453 24.873 0.564453H22.0405C21.3191 0.564453 20.9873 0.985967 20.8093 1.4555C20.8093 1.4555 19.3666 5.35584 17.3276 7.88492C16.6687 8.6159 16.3658 8.85067 16.0051 8.85067C15.8271 8.85067 15.553 8.6159 15.553 7.94895V1.72228C15.553 0.921939 15.351 0.564453 14.7547 0.564453H10.3015C9.84946 0.564453 9.58015 0.937946 9.58015 1.28476C9.58015 2.04242 10.5997 2.2185 10.7055 4.35274V8.98406C10.7055 9.99783 10.542 10.1846 10.1813 10.1846C9.21947 10.1846 6.88226 6.26823 5.49725 1.78631C5.21833 0.916604 4.94421 0.564453 4.21804 0.564453H1.38549C0.577571 0.564453 0.414062 0.985967 0.414062 1.4555C0.414062 2.28786 1.37588 6.42296 4.89131 11.8866C7.23333 15.6162 10.5323 17.6384 13.5332 17.6384C15.3366 17.6384 15.5578 17.1902 15.5578 16.4166C15.5578 12.8524 15.3943 12.5162 16.2984 12.5162C16.7168 12.5162 17.4382 12.751 19.1214 14.5491C21.045 16.6834 21.3624 17.6384 22.4396 17.6384H25.2722C26.0801 17.6384 26.4889 17.1902 26.2532 16.3045C25.7146 14.4424 22.0741 10.6114 21.9106 10.3553C21.4922 9.75772 21.6125 9.49094 21.9106 8.95738C21.9154 8.95205 25.3731 3.5524 25.729 1.72228Z" fill="#E5E5E5"/>
</svg>
