<svg width="26" height="18" viewBox="0 0 26 18" fill="none" xmlns="http://www.w3.org/2000/svg">
<path fill-rule="evenodd" clip-rule="evenodd" d="M25.0288 4.2617C25.0288 4.2617 24.7893 2.58237 24.0555 1.843C23.1242 0.872038 22.0805 0.8675 21.6022 0.811163C18.1757 0.564453 13.0359 0.564453 13.0359 0.564453H13.0251C13.0251 0.564453 7.88532 0.564453 4.45877 0.811163C3.97975 0.8675 2.93679 0.872038 2.00478 1.843C1.27096 2.58256 1.03222 4.2617 1.03222 4.2617C1.03222 4.2617 0.787354 6.23425 0.787354 8.20586V10.055C0.787354 12.0273 1.03222 13.9991 1.03222 13.9991C1.03222 13.9991 1.27096 15.6784 2.00478 16.4178C2.93679 17.3888 4.16034 17.3583 4.70516 17.4597C6.66407 17.647 13.0305 17.7049 13.0305 17.7049C13.0305 17.7049 18.1757 17.6973 21.6022 17.4506C22.0805 17.3935 23.1242 17.389 24.0555 16.418C24.7893 15.6784 25.0288 13.9993 25.0288 13.9993C25.0288 13.9993 25.2737 12.0275 25.2737 10.055V8.20586C25.2737 6.23425 25.0288 4.2617 25.0288 4.2617ZM10.5023 12.2956L10.5015 5.44837L17.1174 8.88379L10.5023 12.2956Z" fill="#E5E5E5"/>
</svg>
